<?xml version="1.0" standalone="no"?>
<!DOCTYPE svg PUBLIC "-//W3C//DTD SVG 1.1//EN" "http://www.w3.org/Graphics/SVG/1.1/DTD/svg11.dtd" >
<svg xmlns="http://www.w3.org/2000/svg" xmlns:xlink="http://www.w3.org/1999/xlink" version="1.1">
<metadata></metadata>
<defs>
<font id="public_sansextrabold_italic" horiz-adv-x="667" >
<font-face units-per-em="2048" ascent="1597" descent="-451" />
<missing-glyph horiz-adv-x="444" />
<glyph unicode="&#xfb01;" horiz-adv-x="1384" d="M74 819l35 240h178l22 147q20 129 110.5 202t229.5 73h260l-35 -230h-126q-52 0 -76 -24t-33 -86l-12 -82h209l-35 -240h-203l-123 -819h-346l123 819h-178zM838 0l159 1059h344l-157 -1059h-346zM1016 1208l47 301h348l-45 -301h-350z" />
<glyph unicode="&#xfb02;" horiz-adv-x="1458" d="M74 819l35 240h178l22 147q20 129 110.5 202t229.5 73h260l-35 -230h-126q-52 0 -76 -24t-33 -86l-12 -82h209l-35 -240h-203l-123 -819h-346l123 819h-178zM869 241q2 28 8 68l182 1213h340l-174 -1170q-9 -54 10.5 -86.5t85.5 -40.5l45 -4l-33 -213q-79 -28 -137 -28 q-73 0 -129 10.5t-91.5 27t-59 43.5t-34 52.5t-13 62.5t-0.5 65z" />
<glyph horiz-adv-x="53" />
<glyph horiz-adv-x="53" />
<glyph horiz-adv-x="682" />
<glyph unicode="&#xd;" horiz-adv-x="491" />
<glyph unicode=" "  horiz-adv-x="444" />
<glyph unicode="&#x09;" horiz-adv-x="444" />
<glyph unicode="&#xa0;" horiz-adv-x="444" />
<glyph unicode="!" horiz-adv-x="602" d="M14 0l56 356h368l-53 -356h-371zM170 494l51 987h402l-238 -987h-215z" />
<glyph unicode="&#x22;" horiz-adv-x="1030" d="M231 864l9 617h335l-176 -617h-168zM717 864l8 617h336l-176 -617h-168z" />
<glyph unicode="#" horiz-adv-x="1239" d="M61 451v174h258l37 245h-229v174h254l65 441l172 -19l-61 -422h262l66 441l176 -19l-62 -422h222v-174h-248l-37 -245h219v-174h-244l-67 -457l-176 22l63 435h-260l-68 -457l-174 22l64 435h-232zM496 625h262l37 245h-263z" />
<glyph unicode="$" horiz-adv-x="1396" d="M78 434l360 2q6 -89 71.5 -137.5t176.5 -48.5q97 0 161 46t75 114q10 71 -30 104t-142 55l-226 45q-169 32 -253 139.5t-58 282.5q24 178 165 298t347 153l29 201h295l-31 -203q186 -35 278.5 -156.5t61.5 -284.5l-352 -4q3 92 -32.5 139.5t-135.5 47.5 q-112 0 -176 -42.5t-74 -107.5q-8 -59 24.5 -91t132.5 -58l224 -54q375 -87 319 -462q-25 -169 -157 -281t-340 -141l-27 -176h-293l27 174q-213 27 -322.5 137.5t-97.5 308.5z" />
<glyph unicode="%" horiz-adv-x="1816" d="M166 1079q25 173 146.5 298.5t269.5 125.5q96 0 169.5 -58t106 -155.5t16.5 -210.5q-24 -171 -142 -292t-267 -121q-99 0 -173.5 56t-107.5 151t-18 206zM401 1079q-18 -119 2 -179t84 -60t100 59.5t54 179.5q16 126 -3.5 189t-80.5 63q-125 0 -156 -252zM418 -8l28 239 l1137 1266l-31 -235zM983 395q25 172 146 298t268 126q98 0 172 -58.5t106.5 -156t16.5 -209.5q-24 -171 -143 -293t-269 -122q-98 0 -172.5 56.5t-107.5 152t-17 206.5zM1219 393q-16 -118 3.5 -177.5t80.5 -59.5q62 0 98.5 59.5t54.5 177.5q32 252 -84 252t-153 -252z" />
<glyph unicode="&#x26;" horiz-adv-x="1646" d="M76 371q22 148 126.5 250.5t319.5 209.5q-76 105 -95 143q-43 83 -30 175q25 154 167 254t343 100q131 0 231.5 -40.5t150.5 -115t36 -169.5q-32 -195 -369 -392l150 -223q102 203 129 297h358q-38 -74 -101 -161t-140.5 -183.5t-114.5 -150.5l252 -365h-393l-97 135 q-233 -145 -495 -145q-244 0 -349 103.5t-79 277.5zM469 393q1 -66 50 -103.5t112 -37.5q51 0 117.5 22.5t115.5 63.5l-205 297q-195 -106 -190 -242zM741 1174q-11 -70 62 -170l37 -48q94 57 135 104.5t49 100.5q10 67 -28 103t-103 34q-61 -3 -102.5 -37.5t-49.5 -86.5z " />
<glyph unicode="'" horiz-adv-x="542" d="M229 864l7 617h337l-178 -617h-166z" />
<glyph unicode="(" horiz-adv-x="712" d="M121 588q37 247 147.5 479.5t276.5 431.5h243q-139 -210 -234.5 -443.5t-129.5 -469.5q-33 -241 -10.5 -449t100.5 -448h-244q-106 245 -146 449.5t-3 449.5z" />
<glyph unicode=")" horiz-adv-x="714" d="M-102 -311q139 206 234.5 440t131.5 473q25 148 19.5 301.5t-32 294t-77.5 301.5h244q105 -243 145 -449t4 -450q-39 -249 -149.5 -481t-274.5 -430h-245z" />
<glyph unicode="*" horiz-adv-x="1042" d="M137 1083l74 199l297 -131l-25 330h219l-30 -332l303 133l63 -199l-307 -86l215 -254l-182 -127l-174 289l-174 -295l-183 129l220 258z" />
<glyph unicode="+" horiz-adv-x="1222" d="M129 621l37 249h371l57 379h248l-58 -379h371l-37 -249h-370l-56 -377h-248l56 377h-371z" />
<glyph unicode="," horiz-adv-x="600" d="M-18 -299l163 289l-110 12l49 317h330l-43 -280l-269 -338h-120z" />
<glyph unicode="-" horiz-adv-x="817" d="M98 401l35 250h567l-34 -250h-568z" />
<glyph unicode="." horiz-adv-x="593" d="M23 0l55 362h368l-55 -362h-368z" />
<glyph unicode="/" horiz-adv-x="813" d="M-55 -18l735 1499h235l-735 -1499h-235z" />
<glyph unicode="0" horiz-adv-x="1300" d="M98 737q55 363 240 564.5t457 201.5q273 0 396 -201t69 -565q-55 -362 -236 -557.5t-457 -195.5q-278 0 -400.5 195t-68.5 558zM454 367.5q35 -109.5 154 -109.5t186 109t105 368q39 267 5 381.5t-150 114.5q-118 0 -187.5 -116t-109.5 -380q-38 -258 -3 -367.5z" />
<glyph unicode="1" horiz-adv-x="878" d="M154 1077l26 189q344 0 406 215h225l-223 -1481h-348l163 1077h-249z" />
<glyph unicode="2" horiz-adv-x="1325" d="M29 0l24 162l13 84q12 84 49 155t88.5 122.5t115 95.5t131 78t135 64.5t128.5 60t109.5 60.5t80.5 70.5t39 85.5q11 79 -35 129t-135 50q-100 0 -178.5 -59.5t-116.5 -180.5h-327q37 232 211 378t460 146q255 0 385.5 -125.5t100.5 -333.5q-13 -84 -49 -154t-86 -119.5 t-111.5 -90.5t-127 -71.5t-130.5 -57.5t-124 -53.5t-105.5 -54t-77 -64t-37.5 -80.5v-8h729l-45 -289h-1114z" />
<glyph unicode="3" horiz-adv-x="1320" d="M51 473h328q5 -217 215 -217q122 0 198.5 50.5t88.5 131.5q10 76 -48 124.5t-165 53.5l-140 7l39 272l129 10q104 6 171 53t79 123q10 71 -49.5 112.5t-157.5 41.5q-107 0 -177.5 -50.5t-98.5 -170.5h-328q18 121 76 215.5t146 153t196.5 88.5t232.5 30 q103 0 188.5 -14.5t155 -46t115 -78.5t64.5 -114.5t6 -151.5q-32 -232 -307 -320q56 -16 101.5 -44t81 -69.5t50.5 -102.5t4 -134q-16 -110 -79 -196.5t-158.5 -140t-211.5 -81.5t-245 -28q-277 0 -405.5 129t-94.5 364z" />
<glyph unicode="4" horiz-adv-x="1300" d="M18 305l43 279l789 897h336l-131 -887h215l-43 -289h-217l-45 -305h-330l47 305h-664zM379 594h348l70 477z" />
<glyph unicode="5" horiz-adv-x="1368" d="M31 311l288 170q55 -111 122 -169t180 -58q119 0 200.5 61t93.5 156q14 91 -46.5 154t-176.5 63q-57 0 -108.5 -16.5t-124.5 -59.5q-20 -7 -26 -7t-23 9l-224 123l181 744h964l-57 -283h-684l-70 -301q94 37 163.5 53.5t145.5 16.5q234 0 359 -129t92 -355 q-37 -235 -214.5 -369t-447.5 -134q-218 0 -375 91.5t-212 239.5z" />
<glyph unicode="6" horiz-adv-x="1339" d="M94 713q57 369 257.5 579.5t492.5 210.5q146 0 259.5 -51.5t174 -154t43.5 -238.5h-313q-24 174 -197 174q-136 0 -223 -118t-90 -294q60 55 146 84t179 29q224 0 343.5 -124t90.5 -325q-34 -216 -216 -355.5t-433 -139.5q-192 0 -320 89.5t-177.5 252.5t-16.5 381z M455 530q-20 -136 29.5 -210t148.5 -74q92 0 167.5 64t90.5 161q16 101 -41 154t-152 53q-78 0 -156.5 -49.5t-86.5 -98.5z" />
<glyph unicode="7" horiz-adv-x="1220" d="M154 1198l41 283h1118l-43 -283q-129 -132 -270.5 -344t-253 -449t-136.5 -405h-372q19 94 66.5 222t126.5 288t205 343t277 345h-759z" />
<glyph unicode="8" horiz-adv-x="1310" d="M37 418q20 123 118.5 226t202.5 126q-83 47 -128 126t-29 183q19 133 104.5 229.5t212.5 143.5t283 47t270 -47t170.5 -143.5t36.5 -229.5q-16 -104 -85 -183.5t-167 -125.5q98 -23 166 -126.5t49 -225.5q-31 -199 -212.5 -315.5t-453.5 -116.5q-273 0 -420 116t-118 316 zM406 430q-12 -87 42.5 -138.5t163.5 -51.5q111 0 181 51.5t84 138.5q12 88 -43 141.5t-164 53.5t-180.5 -54t-83.5 -141zM545 1085q-13 -85 34 -134.5t134 -49.5q85 0 148 50t75 134q12 86 -35.5 137.5t-132.5 51.5q-86 0 -149.5 -51.5t-73.5 -137.5z" />
<glyph unicode="9" horiz-adv-x="1267" d="M70 430h303q3 -79 48.5 -125.5t123.5 -46.5q143 0 236.5 101.5t107.5 322.5q-53 -68 -136.5 -105.5t-187.5 -37.5q-214 0 -331.5 127.5t-88.5 337.5q31 217 200 357t403 140q269 0 396 -196t81 -527q-56 -398 -238.5 -595t-464.5 -197q-135 0 -242.5 54t-165.5 156.5 t-44 233.5zM492 1020q-13 -98 36 -153.5t134 -55.5q74 0 147.5 49.5t81.5 100.5q20 136 -26.5 210t-141.5 74q-85 0 -150.5 -63t-80.5 -162z" />
<glyph unicode=":" horiz-adv-x="600" d="M23 6l55 356h368l-53 -356h-370zM125 684l53 356h371l-53 -356h-371z" />
<glyph unicode=";" horiz-adv-x="612" d="M-25 -328l189 328h-127l53 358h371l-49 -317l-299 -369h-138zM135 672l55 364h369l-53 -364h-371z" />
<glyph unicode="&#x3c;" horiz-adv-x="1204" d="M121 559l41 283l1022 379l-43 -291l-629 -232l559 -223l-43 -295z" />
<glyph unicode="=" horiz-adv-x="1228" d="M88 338l39 252h989l-39 -250zM160 813l39 252h989l-37 -252h-991z" />
<glyph unicode="&#x3e;" horiz-adv-x="1204" d="M68 180l45 295l628 223l-561 232l43 291l910 -379l-43 -283z" />
<glyph unicode="?" horiz-adv-x="1112" d="M98 1147q91 172 240 263t342 91q218 0 341 -101t101 -245q-10 -66 -39.5 -123t-69.5 -98.5t-86 -79.5t-92.5 -74.5t-86 -75.5t-68.5 -91.5t-39 -112.5h-272q12 76 39 142.5t62 115t75 91.5t79 78t71.5 68t55.5 69t29 73q9 59 -31 95t-108 36q-75 0 -146 -50.5 t-116 -138.5zM246 0l53 356h371l-56 -356h-368z" />
<glyph unicode="@" horiz-adv-x="1701" d="M94 522q24 161 102.5 306t198 254t284 173t347.5 64q111 0 209 -23t182.5 -73.5t141 -124t80 -182t3.5 -240.5q-35 -228 -164 -371t-302 -143q-137 0 -181 90q-8 12 -11.5 11.5t-14.5 -11.5q-116 -119 -275 -119q-133 0 -204.5 97.5t-47.5 256.5q14 91 55 174t101 147 t142.5 102t172.5 38q76 0 118 -24t77 -70q4 -5 9.5 -3t8.5 11l13 35h190l-137 -434q-38 -113 37 -113q67 0 129.5 81.5t85.5 232.5q11 90 4.5 159.5t-36.5 122t-70.5 89t-97 59.5t-117.5 33t-130 10q-157 0 -283.5 -48.5t-210.5 -134t-135 -193t-71 -235.5 q-41 -278 97 -429.5t417 -151.5q124 0 204.5 28.5t178.5 89.5l76 -133q-86 -67 -223 -111t-295 -44q-177 0 -314.5 58.5t-219 160.5t-114.5 237.5t-10 290.5zM680 512q-11 -75 15.5 -125.5t90.5 -50.5q77 0 142.5 67.5t83.5 155.5q15 80 -15 134.5t-96 54.5 q-75 0 -140.5 -69t-80.5 -167z" />
<glyph unicode="A" horiz-adv-x="1464" d="M-39 0l741 1481h357l295 -1481h-342l-60 315h-489l-156 -315h-346zM584 616h334l-87 531z" />
<glyph unicode="B" horiz-adv-x="1413" d="M80 0l221 1481h559q290 0 416 -99q103 -81 103 -224q0 -32 -5 -66q-18 -112 -85 -191t-208 -141q58 -17 101 -42t68 -55.5t40 -61.5q14 -31 18 -68q3 -29 4 -53q0 -8 -1 -14q-1 -30 -6 -65q-31 -207 -182.5 -304t-456.5 -97h-586zM467 266h248q104 0 169 49t77 127 q2 13 2 25q0 61 -42 99q-50 46 -141 46h-260zM559 885h262q81 0 141 43t72 119q2 15 2 29q0 59 -41 96q-51 45 -143 45h-244z" />
<glyph unicode="C" horiz-adv-x="1486" d="M133 756q51 343 264 544t525 201q253 0 400 -145q137 -135 137 -343q0 -16 -1 -32l-362 -2q-2 112 -60 176t-170 64q-287 0 -356 -467q-14 -97 -14 -175q0 -123 36 -195q58 -120 195 -120q103 0 183.5 74.5t117.5 189.5l361 -4q-26 -93 -62 -169.5t-93.5 -147.5 t-130.5 -119t-177 -77t-230 -29q-205 0 -345 99t-196 275q-35 109 -35 238q0 78 13 164z" />
<glyph unicode="D" horiz-adv-x="1486" d="M80 0l223 1481q419 0 481 -2q380 -13 536 -205q119 -146 119 -376q0 -72 -12 -153q-26 -169 -92.5 -304t-173 -234.5t-260 -153t-344.5 -53.5h-477zM471 279h137q61 0 118.5 15.5t113.5 51t100.5 89t78 134t48.5 181.5q10 65 10 120q0 138 -61 220q-85 114 -268 114h-140 z" />
<glyph unicode="E" horiz-adv-x="1329" d="M80 0l223 1481h1038l-45 -291h-690l-43 -303h586l-43 -285h-588l-47 -309h698l-45 -293h-1044z" />
<glyph unicode="F" horiz-adv-x="1265" d="M80 0l223 1481h1030l-45 -287h-682l-47 -320h580l-43 -282h-580l-88 -592h-348z" />
<glyph unicode="G" horiz-adv-x="1564" d="M129 735q35 229 148 403.5t284 268.5t375 94q134 0 243.5 -44t176.5 -116.5t98 -166.5q22 -67 22 -138q0 -27 -3 -55l-363 -2q-5 103 -63 167t-164 64q-138 0 -239.5 -112t-137.5 -350q-12 -94 -12 -164.5t18 -122t41.5 -85.5t59 -54t71 -28.5t76.5 -8.5q97 0 172.5 57 t101.5 129l25 74h-277l37 237l639 -4l-117 -778h-231l27 178q-41 -41 -76 -69.5t-91 -61.5t-127.5 -50t-156.5 -17q-201 0 -339.5 94.5t-195.5 265.5q-35 107 -35 233q0 77 13 162z" />
<glyph unicode="H" horiz-adv-x="1509" d="M80 0l223 1481h348l-88 -578h494l86 578h346l-221 -1481h-348l92 614h-492l-92 -614h-348z" />
<glyph unicode="I" d="M80 0l221 1481h348l-221 -1481h-348z" />
<glyph unicode="J" horiz-adv-x="854" d="M-23 6l52 316q8 -1 36.5 -7t52 -9t46.5 -3q100 0 144.5 52t62.5 175l143 951h344l-156 -1041q-18 -121 -47 -201.5t-82 -141.5t-136.5 -89t-205.5 -28q-139 0 -254 26z" />
<glyph unicode="K" horiz-adv-x="1484" d="M80 0l223 1481h361l-97 -639l568 639h391l-504 -568l342 -913h-373l-256 657l-233 -251l-62 -406h-360z" />
<glyph unicode="L" horiz-adv-x="1165" d="M80 0l223 1481h346l-178 -1190h606l-43 -291h-954z" />
<glyph unicode="M" horiz-adv-x="1902" d="M80 0l221 1481h512l133 -979l430 979h506l-221 -1481h-348l166 1102l-480 -1102h-258l-149 1100l-166 -1100h-346z" />
<glyph unicode="N" horiz-adv-x="1628" d="M80 0l223 1481h346l479 -903l134 903h348l-224 -1481h-313l-504 950l-141 -950h-348z" />
<glyph unicode="O" horiz-adv-x="1574" d="M129 737q52 350 271.5 557t531.5 207q313 -1 469 -207q117 -155 117 -391q0 -79 -13 -166q-52 -348 -268.5 -552.5t-531.5 -204.5q-318 0 -473 204q-116 152 -116 386q0 79 13 167zM506 731q-13 -87 -13 -158q1 -127 43 -199q66 -112 212 -112t244.5 112.5t133.5 356.5 q14 94 14 169q0 127 -40 201q-64 118 -209 118q-147 0 -247.5 -118t-137.5 -370z" />
<glyph unicode="P" horiz-adv-x="1347" d="M80 0l223 1481h557q248 1 386 -131q111 -106 111 -276q0 -42 -7 -87q-34 -219 -192.5 -344t-397.5 -125h-254l-78 -518h-348zM543 782h248q90 0 159.5 66t81.5 158q3 18 3 35q0 69 -43 117q-53 60 -140 61h-244z" />
<glyph unicode="Q" horiz-adv-x="1562" d="M98 737q52 350 271 557t532 207q314 0 470 -207q117 -154 117 -391q0 -78 -13 -166q-55 -378 -312 -594q9 -52 66.5 -86.5t134.5 -36.5l-41 -274q-71 0 -120.5 4.5t-103.5 19t-95.5 41t-83.5 71.5t-80 110q-86 -12 -166 -12q-317 0 -472 204q-117 152 -117 387 q0 78 13 166zM475 733q-13 -90 -13 -162q0 -127 40 -197q63 -112 215 -112t248 111.5t133 359.5q13 91 13 165q0 321 -251 321q-152 0 -249 -116.5t-136 -369.5z" />
<glyph unicode="R" horiz-adv-x="1429" d="M80 0l221 1481h639q134 0 229 -34t146 -97q51 -64 68 -146q9 -42 9 -90q0 -45 -8 -94q-24 -160 -103 -259.5t-202 -164.5l172 -596h-354l-141 541h-248l-82 -541h-346zM547 805h246q92 0 160.5 61t80.5 150q3 18 3 35q0 65 -40 111q-50 58 -133 57h-256z" />
<glyph unicode="S" horiz-adv-x="1445" d="M78 434l360 2q6 -88 73 -137t177 -49q117 0 199.5 39.5t93.5 120.5q1 9 1 17q0 25 -11 47q-15 28 -49 45.5t-72 29t-92 22.5l-234 45q-170 32 -254 138q-65 82 -64 207q0 36 5 75q20 141 115.5 247.5t237.5 161t308 54.5q128 0 234.5 -37.5t174.5 -100.5t104 -145 q32 -74 32 -154v-18l-350 -4v9q0 91 -56 133q-59 44 -173 45q-111 0 -175.5 -43t-74.5 -107q-2 -12 -1 -22q0 -44 26 -72q33 -34 132 -55l232 -45q79 -15 141 -41.5t101.5 -57t66 -70.5t39 -76t16.5 -80q3 -29 2 -54v-22q-2 -32 -8 -70q-28 -185 -221.5 -308.5 t-462.5 -123.5q-116 0 -219 27.5t-186 80.5q-82 54 -128 143q-40 79 -41 177q0 13 1 26z" />
<glyph unicode="T" horiz-adv-x="1259" d="M121 1171l47 310h1194l-47 -310h-424l-176 -1171h-344l174 1171h-424z" />
<glyph unicode="U" horiz-adv-x="1503" d="M158 340q-8 49 -8 103q0 71 14 151l133 887h350l-135 -908q-7 -44 -7 -81q1 -92 43 -146q60 -74 175 -74q113 0 195 74.5t106 226.5l135 908h350l-133 -893q-21 -142 -70 -250.5t-131.5 -190.5t-207.5 -124.5t-289 -42.5q-165 0 -277.5 43.5t-168.5 123t-74 193.5z" />
<glyph unicode="V" horiz-adv-x="1419" d="M156 1481h325l201 -1073l520 1073h330l-721 -1481h-383z" />
<glyph unicode="W" horiz-adv-x="1966" d="M168 1481h338l112 -887l375 887h244l117 -887l375 887h335l-655 -1481h-266l-117 887l-385 -887h-260z" />
<glyph unicode="X" horiz-adv-x="1456" d="M-39 0l592 750l-354 731h428l190 -441l318 441h364l-543 -682l392 -799h-430l-222 498l-364 -498h-371z" />
<glyph unicode="Y" horiz-adv-x="1390" d="M145 1481h373l225 -563l392 563h376l-641 -860l-92 -621h-346l92 621z" />
<glyph unicode="Z" horiz-adv-x="1404" d="M23 0l24 164l862 1028h-651l45 289h1147l-23 -156l-878 -1032h715l-45 -293h-1196z" />
<glyph unicode="[" horiz-adv-x="731" d="M16 -330l271 1811h504l-31 -191h-223l-213 -1429h223l-29 -191h-502z" />
<glyph unicode="\" horiz-adv-x="782" d="M147 1481h234l285 -1499h-234z" />
<glyph unicode="]" horiz-adv-x="739" d="M-96 -330l30 191h224l213 1429h-224l29 191h502l-270 -1811h-504z" />
<glyph unicode="^" horiz-adv-x="987" d="M20 246l433 760q27 45 70.5 63t82 1.5t51.5 -62.5l203 -762h-223l-123 487l-268 -487h-226z" />
<glyph unicode="_" horiz-adv-x="1155" d="M0 -301l37 248h911l-39 -248h-909z" />
<glyph unicode="`" d="M131 1286l111 217l485 -213l-70 -143z" />
<glyph unicode="a" horiz-adv-x="1146" d="M29 309q55 361 598 361l104 2l6 53q2 14 2 26q-1 44 -25 69q-30 30 -92 30h-8q-59 -2 -113.5 -29t-84.5 -84h-283q34 168 179.5 255t353.5 87q242 -1 336 -87q75 -69 76 -184q0 -28 -5 -60l-112 -748h-287l-4 174q-65 -108 -144 -151t-190 -43q-75 0 -136.5 22 t-103.5 62.5t-60 103.5q-11 39 -11 84q0 27 4 57zM360 346q-2 -13 -2 -24q0 -48 30 -79q37 -38 99 -38q69 0 127.5 45.5t67.5 105.5l23 144h-84q-56 0 -109 -13t-99 -49.5t-53 -91.5z" />
<glyph unicode="b" horiz-adv-x="1234" d="M43 0l227 1522h346l-94 -629q60 88 146 137t178 49q195 0 280 -146q59 -102 59 -254q0 -66 -11 -142q-39 -258 -177 -407.5t-350 -149.5q-112 0 -193 49t-108 129l-57 -158h-246zM465 514q-7 -52 -7 -95q0 -73 21 -119q34 -73 115 -73q181 0 229 312q9 61 9 109 q0 76 -22 116q-36 66 -122 65q-170 0 -215 -264z" />
<glyph unicode="c" horiz-adv-x="1083" d="M61 524q37 245 204 400t392 155q135 0 227.5 -59t130.5 -155q28 -72 28 -156q0 -29 -3 -60h-284q0 31 -6.5 59t-20.5 54t-41.5 41.5t-64.5 15.5q-92 0 -156.5 -76t-85.5 -215q-7 -45 -7 -84q0 -82 30 -138q44 -82 135 -83q70 0 117 53t65 113h276q-32 -174 -170.5 -291.5 t-332.5 -117.5q-223 0 -346 152q-95 117 -95 287q0 50 8 105z" />
<glyph unicode="d" horiz-adv-x="1228" d="M63 537q36 249 165 395.5t323 146.5q94 0 168.5 -39.5t107.5 -111.5l88 594h347l-230 -1522h-246l-8 217q-50 -108 -138 -172.5t-218 -64.5q-212 0 -306 150q-65 105 -65 263q0 67 12 144zM397 539q-10 -62 -10 -112q-1 -79 25 -125q40 -74 129 -75q80 0 139.5 64 t77.5 178l20 131q4 30 4 56q0 69 -28 113q-40 60 -127 60q-187 0 -230 -290z" />
<glyph unicode="e" horiz-adv-x="1138" d="M59 516q23 157 102 283.5t209.5 203t288.5 76.5q240 0 347 -149q80 -111 80 -276q0 -55 -9 -117l-14 -88h-674q-5 -32 -5 -59q0 -62 28 -104q42 -58 127 -59q139 0 202 121h310q-35 -112 -121.5 -197t-196 -128t-223.5 -43q-240 0 -364 146q-96 113 -95 284q0 50 8 106z M416 649h358q2 18 2 35q0 60 -30 102q-38 54 -123 54q-77 0 -135.5 -57t-71.5 -134z" />
<glyph unicode="f" horiz-adv-x="790" d="M74 819l35 240h178l22 147q20 129 110.5 202t229.5 73h260l-35 -230h-126q-52 0 -76 -24t-33 -86l-12 -82h209l-35 -240h-203l-123 -819h-346l123 819h-178z" />
<glyph unicode="g" horiz-adv-x="1277" d="M-63 -98q6 40 29.5 72.5t56.5 52.5t61 32.5t56 20.5l28 8q-2 1 -11.5 6t-15.5 9t-17.5 11.5t-19 14t-18 17.5t-15.5 21.5t-11.5 25t-5.5 29.5t1 34q9 63 75 111.5t179 66.5q-98 49 -141 133q-32 64 -32 133q0 21 3 43q24 154 183.5 243t377.5 89q100 0 166 -20.5 t127 -59.5q23 9 93 35t136.5 51.5t114.5 44.5l-39 -256l-184 -28q6 -32 6 -63q0 -17 -2 -34q-10 -69 -51.5 -132t-108.5 -113.5t-166.5 -80.5t-216.5 -30q-62 0 -120 4q-65 -5 -68 -31q-2 -10 6 -16.5t26.5 -10.5t43.5 -6.5t61 -4.5q7 0 10.5 -0.5t9.5 -1t11 -0.5 q61 -3 209 -13q196 -13 283 -97q72 -70 72 -169q0 -21 -3 -43q-24 -159 -187.5 -254.5t-441.5 -95.5q-285 0 -427 70q-125 62 -125 157q0 12 2 25zM281 -57q-1 -7 -1 -13q0 -48 60 -68q69 -24 231 -24q108 0 153.5 22.5t51.5 69.5q1 7 1 13q0 33 -27 55q-33 25 -101 29 l-209 14h-16q-60 0 -96 -26q-42 -30 -47 -72zM485 733q-3 -17 -3 -32q0 -48 27 -81q35 -42 105 -42t118 42t59 113q3 17 3 32q0 50 -28 87q-35 47 -102 47q-69 0 -119.5 -48t-59.5 -118z" />
<glyph unicode="h" horiz-adv-x="1226" d="M43 0l229 1522h346l-90 -598q52 63 123.5 101t182.5 38q150 1 242 -95q74 -78 75 -193q0 -26 -4 -54l-109 -721h-348l103 676q2 10 2 20q1 42 -31 68q-38 34 -99.5 33.5t-113.5 -36t-59 -91.5l-103 -670h-346z" />
<glyph unicode="i" horiz-adv-x="593" d="M47 0l160 1059h344l-158 -1059h-346zM225 1208l47 301h349l-46 -301h-350z" />
<glyph unicode="j" horiz-adv-x="632" d="M-143 -307l32 231l72 10q60 10 85.5 33.5t31.5 67.5l153 1024h347l-154 -1026q-28 -187 -135.5 -280t-302.5 -93q-47 0 -79.5 8t-40.5 16zM252 1208l45 301h350l-45 -301h-350z" />
<glyph unicode="k" horiz-adv-x="1206" d="M43 0l227 1522h346l-129 -860l392 397h364l-444 -430l293 -629h-340l-195 424l-123 -121l-45 -303h-346z" />
<glyph unicode="l" d="M78 241q2 28 8 68l182 1213h340l-174 -1170q-3 -17 -3 -32q-1 -32 13 -54q20 -32 86 -41l45 -4l-32 -213q-79 -28 -137 -28q-73 0 -129 10.5t-92 27t-59 43.5t-34 53q-12 25 -14 62q-1 21 -1 38q0 15 1 27z" />
<glyph unicode="m" horiz-adv-x="1847" d="M43 0l158 1059h340l-21 -131q144 151 357 151q87 0 160 -36.5t106 -114.5q64 68 158.5 109.5t181.5 41.5q62 0 118 -22t99 -63q44 -40 64 -108q13 -41 13 -89q0 -30 -5 -62l-111 -735h-346l104 696q2 14 2 27q-1 46 -29 72q-36 34 -94 34q-83 0 -123.5 -43.5 t-54.5 -134.5l-98 -651h-344l106 709q1 9 1 18q1 41 -31 69q-38 32 -95 33q-58 0 -107.5 -33t-57.5 -91l-107 -705h-344z" />
<glyph unicode="n" horiz-adv-x="1226" d="M43 0l160 1059h340l-19 -131q47 46 78.5 70t93.5 45.5t140 21.5q69 0 131 -26.5t106 -72.5q45 -45 65 -112q13 -44 13 -91q0 -25 -4 -52l-109 -711h-346l101 666q2 11 2 22q0 44 -31 73q-38 36 -96 36q-63 0 -116 -33.5t-60 -89.5l-103 -674h-346z" />
<glyph unicode="o" horiz-adv-x="1157" d="M61 522q37 248 204.5 402.5t398.5 154.5q235 1 351 -155q88 -118 88 -288q0 -54 -9 -114q-36 -239 -199.5 -390.5t-398.5 -151.5t-353 150q-90 115 -90 284q0 52 8 108zM392 430q3 -54 15 -97t45.5 -70t84.5 -27q50 0 91 26.5t66.5 71.5t41 95t22.5 106q9 45 9 89v16 q-2 52 -14 93.5t-44.5 67.5t-83.5 26t-92 -25t-67.5 -68.5t-42.5 -92.5t-24 -106q-8 -40 -7 -81q-1 -12 0 -24z" />
<glyph unicode="p" horiz-adv-x="1234" d="M-4 -330l209 1389h346l-21 -129q134 149 318 149q177 0 272 -139q67 -99 67 -261q0 -67 -11 -144q-21 -142 -75 -251.5t-127.5 -174t-156.5 -97t-172 -32.5q-84 0 -141 38t-88 138l-74 -486h-346zM455 414v-10q0 -72 43 -123q45 -54 114 -54q84 0 152 79.5t90 228.5 q7 44 7 82q0 81 -31 135q-46 77 -128 77q-74 0 -140 -62t-77 -136z" />
<glyph unicode="q" horiz-adv-x="1224" d="M57 282q-7 47 -7 102q0 69 11 151q20 136 68.5 242t116 171t146 98t163.5 33q157 0 276 -114l15 94h346l-209 -1389h-346l68 445q-143 -135 -304 -135q-88 0 -158 31.5t-120 98.5t-66 172zM414 541q-8 -57 -8 -105q0 -82 24 -138q40 -89 123 -89q78 0 134.5 83t78.5 222 l6 55q7 50 7 91q0 71 -21 116q-34 72 -113 72q-83 0 -146 -77t-85 -230z" />
<glyph unicode="r" horiz-adv-x="845" d="M43 0l160 1059h332l-39 -273q59 131 160 212t239 81l-47 -329q-48 3 -88 3q-20 -1 -38 -1q-54 -2 -94.5 -17t-68 -33t-46 -45t-28 -53.5t-14.5 -58.5l-82 -545h-346z" />
<glyph unicode="s" horiz-adv-x="1081" d="M43 344h297q3 -38 21.5 -66t45.5 -41t51.5 -18.5t47.5 -5.5q76 0 124.5 22.5t55.5 65.5q1 5 1 10q0 29 -24 47q-28 22 -94 33l-161 33q-279 55 -279 260q0 24 4 51q22 153 158.5 248.5t349.5 95.5q203 1 311 -91q85 -73 86 -187q0 -30 -6 -62h-282q-3 53 -45 80t-109 27 q-149 0 -160 -82v-7q0 -30 30 -49q34 -21 118 -36l145 -31q58 -15 103.5 -39t72 -51.5t45.5 -59t24 -61.5t8 -59.5t-3 -51.5q-24 -160 -166 -249.5t-342 -89.5q-84 0 -158.5 21t-135.5 63.5t-97 114.5t-37 165z" />
<glyph unicode="t" horiz-adv-x="868" d="M78 819l35 240h180l102 325h279l-47 -323h229l-37 -242h-229l-76 -520q-6 -43 11 -58.5t57 -15.5h149l-31 -209q-62 -30 -200 -30q-88 0 -153 14.5t-102.5 41t-59.5 63.5q-23 37 -25 82q-1 13 0 27q0 33 4 69l82 536h-168z" />
<glyph unicode="u" horiz-adv-x="1222" d="M86 319l111 740h346l-105 -692q-2 -13 -2 -25q0 -46 28 -76q35 -36 101 -37q69 0 116.5 38t57.5 102l103 690h348l-164 -1059h-258l-8 213q-20 -57 -52 -100t-66.5 -67.5t-76 -40t-75.5 -20.5t-70 -5q-66 0 -129 22t-114.5 63t-77.5 107q-17 44 -17 95q0 25 4 52z" />
<glyph unicode="v" horiz-adv-x="1069" d="M94 1059h309l113 -608h4l289 608h313l-557 -1059h-233z" />
<glyph unicode="w" horiz-adv-x="1601" d="M94 1059h303l92 -586h5l258 586h243l82 -586h2l264 586h310l-514 -1059h-258l-86 578l-267 -578h-247z" />
<glyph unicode="x" horiz-adv-x="1206" d="M-51 0l483 553l-287 506h357l151 -264l226 264h358l-442 -506l315 -553h-356l-176 313l-271 -313h-358z" />
<glyph unicode="y" horiz-adv-x="1165" d="M-35 -297l33 221l102 -6q16 -1 31 -1q36 0 65 5q42 7 64 17t39.5 28.5t21 25.5t9.5 21l18 39l-254 1006h340l127 -633l322 633h338l-568 -1030q-62 -111 -122 -184.5t-120 -113t-116 -54.5t-125 -15q-68 0 -119 10t-69 20z" />
<glyph unicode="z" horiz-adv-x="1099" d="M-12 0l24 172l611 670h-465l32 217h904l-27 -166l-614 -674h518l-33 -219h-950z" />
<glyph unicode="{" horiz-adv-x="839" d="M25 502l26 168q120 0 180 43t72 133l57 379q12 82 73 142.5t138.5 87t157.5 26.5h170l-31 -191h-96q-43 0 -70.5 -8t-41 -25t-18.5 -32t-9 -41l-60 -393q-12 -65 -54.5 -110.5t-90.5 -64t-102 -24.5q-12 -2 -13 -6.5t11 -5.5q209 -19 186 -215l-59 -396q-9 -58 14.5 -83 t95.5 -25h94l-30 -191h-162q-61 0 -117 16t-100.5 46.5t-67 81.5t-12.5 114l59 406q13 77 -35.5 122.5t-164.5 45.5z" />
<glyph unicode="|" horiz-adv-x="573" d="M35 -330l301 2022h248l-301 -2022h-248z" />
<glyph unicode="}" horiz-adv-x="833" d="M-96 -330l28 191h99q42 0 69.5 8t41.5 25t19 32.5t9 40.5l57 393q10 50 36.5 88t63 60.5t74 34.5t76.5 16q12 2 13 6.5t-11 5.5q-209 19 -186 215l59 396q9 58 -14.5 83t-95.5 25h-95l29 191h162q62 0 118.5 -16t101 -46.5t67 -81.5t12.5 -114l-59 -406 q-13 -77 35.5 -122.5t164.5 -45.5l-26 -168q-120 0 -180 -43t-72 -133l-58 -379q-13 -82 -73.5 -142.5t-137.5 -87t-157 -26.5h-170z" />
<glyph unicode="~" horiz-adv-x="1277" d="M139 715q111 103 195 153t178 50q56 0 107.5 -21t83.5 -46t75 -46t84 -21q68 0 131 44t113 114l76 -166q-70 -101 -162 -154t-182 -53q-55 0 -107 21.5t-86 46.5t-80 46.5t-90 21.5q-37 0 -71 -12t-71 -40t-57.5 -47t-62.5 -61z" />
<glyph unicode="&#xa1;" horiz-adv-x="598" d="M-31 -330l221 893h213l-28 -893h-406zM129 702l49 357h373l-49 -357h-373z" />
<glyph unicode="&#xa2;" horiz-adv-x="1218" d="M127 752q33 215 178 362.5t348 181.5l25 185h219l-25 -185q161 -30 239 -145t60 -274h-303q0 43 -11 78.5t-44.5 63.5t-85.5 28q-98 0 -166.5 -76t-91.5 -215q-23 -140 24 -222.5t144 -82.5q40 0 74.5 17t58 44t38 53t23.5 51h295q-27 -139 -130.5 -245.5t-256.5 -145.5 l-30 -225h-220l29 211q-208 24 -317 171.5t-74 369.5z" />
<glyph unicode="&#xa3;" horiz-adv-x="1343" d="M-27 0l43 287h66q167 0 192 180q12 78 15 221h-207l29 186h165l17 193q4 103 51 187.5t123 137t169 81t193 28.5q173 0 291.5 -82t159.5 -235l-313 -88q-21 73 -47.5 103t-77.5 30q-58 0 -99 -39.5t-51 -108.5q-7 -45 -4 -204h281l-29 -187h-256q-11 -132 -43 -209 q-22 -65 -53 -104.5t-92 -87.5h233q92 0 141.5 35t94.5 127l282 -60q-158 -391 -534 -391h-740z" />
<glyph unicode="&#xa4;" horiz-adv-x="1212" d="M39 356l160 140q-52 109 -35 247q20 127 96 234q14 19 0 33l-102 127l159 145l121 -145q131 77 256 77q128 0 232 -69q10 -7 22 2l129 119l119 -146l-143 -125q52 -113 34 -250q-19 -136 -104 -241q-7 -10 -2 -15l102 -118l-161 -144l-105 127q-131 -78 -258 -78 q-128 0 -225 66q-18 11 -33 -4l-145 -127zM385 745q-15 -100 43.5 -172.5t161.5 -72.5q101 0 182 72.5t96 172.5q14 99 -44 172.5t-160 73.5q-101 0 -183 -74t-96 -172z" />
<glyph unicode="&#xa5;" horiz-adv-x="1372" d="M113 1481h448l219 -555l385 555h361l-574 -758h254l-28 -184h-297l-23 -148h297l-27 -180h-297l-32 -211h-391l30 211h-295l27 180h297l20 148h-294l26 182h234z" />
<glyph unicode="&#xa6;" horiz-adv-x="573" d="M35 -330l125 842h246l-123 -842h-248zM211 850l125 842h248l-125 -842h-248z" />
<glyph unicode="&#xa7;" horiz-adv-x="1056" d="M-16 74l225 104q37 -63 92 -100t148 -37q73 0 120 24t54 72q6 37 -20.5 66t-100.5 59l-137 55q-164 66 -227.5 143t-45.5 197q13 92 67.5 161t141.5 110q-137 98 -115 243q22 143 150 236.5t319 93.5q155 0 264 -67.5t140 -163.5l-223 -103q-24 29 -40 46.5t-42 39 t-56 31.5t-65 10q-57 0 -94 -24t-43 -64q-7 -53 77 -90l144 -57q168 -70 233 -147.5t45 -200.5q-25 -173 -194 -269q83 -52 114 -112.5t17 -145.5q-24 -158 -155.5 -253t-350.5 -95q-176 0 -292.5 68.5t-149.5 169.5zM375 709q-6 -40 19 -65t110 -60l84 -37q51 -6 87 29.5 t38 87.5q0 38 -29 68t-96 59l-78 30q-58 -4 -93.5 -36t-41.5 -76z" />
<glyph unicode="&#xa8;" horiz-adv-x="831" d="M96 1208l47 301h349l-46 -301h-350zM571 1208l45 301h351l-45 -301h-351z" />
<glyph unicode="&#xa9;" horiz-adv-x="1687" d="M119 741q22 154 102.5 294.5t195.5 242.5t262.5 162.5t299.5 60.5t281.5 -60.5t214.5 -162.5t123.5 -242.5t15.5 -294.5q-32 -208 -159 -383.5t-313.5 -276.5t-389.5 -101q-153 0 -282 59.5t-214 161.5t-122.5 243t-14.5 297zM319 741q-40 -263 86.5 -420t374.5 -157 q245 0 419.5 157.5t213.5 419.5q38 260 -89.5 420t-371.5 160q-246 0 -420.5 -159.5t-212.5 -420.5zM463 741q29 189 162 307.5t309 118.5q76 0 136.5 -25.5t98 -67t58 -90t24.5 -99.5l-237 -19q-9 127 -99 127q-67 0 -113.5 -61.5t-64.5 -186.5q-41 -249 119 -249 q63 0 105.5 34.5t85.5 102.5l161 -37q-12 -31 -33 -65t-57 -72t-79 -68t-103.5 -49.5t-126.5 -19.5q-179 0 -276.5 117t-69.5 302z" />
<glyph unicode="&#xaa;" horiz-adv-x="765" d="M129 1004q14 101 110.5 164.5t245.5 66.5l62 2l4 43q8 47 -14.5 65.5t-57.5 18.5q-80 0 -121 -82l-172 39q53 93 124 136.5t196 43.5q147 -1 201.5 -54t40.5 -155q-5 -39 -18 -126t-19 -138q-15 -135 -15 -147l6 -54h-200l-4 64q-60 -41 -102 -58.5t-95 -17.5 q-95 0 -139.5 51t-32.5 138zM328 1018q-3 -32 15.5 -51t55.5 -19q46 0 86 31q29 25 31 49l14 94h-49q-64 -3 -105.5 -31t-47.5 -73z" />
<glyph unicode="&#xab;" horiz-adv-x="1054" d="M111 514l284 404h183l-205 -404l84 -387h-178zM506 514l287 404h180l-205 -404l86 -387h-180z" />
<glyph unicode="&#xac;" horiz-adv-x="1222" d="M129 621l37 249h991l-29 -188l-57 -379h-278l47 318h-711z" />
<glyph unicode="&#xad;" horiz-adv-x="817" d="M98 401l35 250h567l-34 -250h-568z" />
<glyph unicode="&#xae;" horiz-adv-x="1126" d="M158 1024q29 198 186.5 337.5t353.5 139.5q126 0 224 -63.5t144 -173.5t26 -240q-14 -97 -64 -185t-122 -151.5t-164 -101t-187 -37.5q-128 0 -226 63t-144 172.5t-27 239.5zM299 1024q-25 -157 50 -250.5t224 -93.5t252.5 93.5t126.5 250.5t-51.5 251.5t-222.5 94.5 q-150 0 -253 -94.5t-126 -251.5zM397 786l72 471h221q87 0 130 -33t34 -96q-7 -44 -37 -76.5t-74 -50.5l62 -215h-143l-37 201h-68l-31 -201h-129zM569 1075h90q23 0 40.5 12.5t21.5 34.5q3 23 -12.5 35t-42.5 12h-82z" />
<glyph unicode="&#xaf;" horiz-adv-x="860" d="M143 1257l33 218h760l-33 -218h-760z" />
<glyph unicode="&#xb0;" horiz-adv-x="970" d="M246 1358q23 154 136.5 254t262.5 100t233 -100t62 -254q-25 -155 -138 -253.5t-263 -98.5t-233 99t-60 253zM438 1356q-8 -72 26 -117t103 -45q67 0 114 45.5t58 116.5t-24 115.5t-103 44.5q-69 0 -117 -44.5t-57 -115.5z" />
<glyph unicode="&#xb1;" horiz-adv-x="1230" d="M49 51l37 250h989l-37 -250h-989zM162 803l37 250h370l58 379h250l-58 -379h369l-37 -250h-369l-57 -377h-248l55 377h-370z" />
<glyph unicode="&#xb2;" horiz-adv-x="806" d="M88 786l25 154q10 67 44.5 121.5t81.5 90.5t102.5 66t110 54t100 47.5t76.5 54t36 66.5q8 50 -21.5 81t-85.5 31q-63 0 -111.5 -37.5t-72.5 -113.5h-207q23 145 132.5 237.5t289.5 92.5q161 0 242.5 -79t62.5 -210q-10 -67 -44 -120t-80 -86.5t-99.5 -60.5t-105.5 -48 t-96 -42t-73.5 -49t-34.5 -63l-2 -4h459l-29 -183h-700z" />
<glyph unicode="&#xb3;" horiz-adv-x="829" d="M129 1083h207q3 -137 135 -137q76 0 124 32t56 83q7 49 -29 80t-104 33l-88 4l25 172l80 6q66 3 108 32t49 78q7 46 -31 72.5t-100 26.5q-141 0 -172 -140h-207q22 150 135 228t275 78q168 0 259.5 -63t72.5 -191q-19 -145 -193 -203q74 -21 118.5 -76t31.5 -143 q-21 -136 -144 -208.5t-293 -72.5q-176 0 -256.5 80.5t-58.5 228.5z" />
<glyph unicode="&#xb4;" d="M139 1290l549 213l43 -217l-567 -139z" />
<glyph unicode="&#xb5;" horiz-adv-x="1255" d="M-8 -338l213 1423h356l-98 -645q-6 -56 29.5 -91.5t99.5 -35.5q58 0 105.5 33.5t74.5 91.5l94 647h359l-168 -1085h-346l24 168q-85 -85 -172 -105q-80 -18 -153 7l-62 -408h-356z" />
<glyph unicode="&#xb6;" horiz-adv-x="1247" d="M133 1044q29 190 173 313.5t364 123.5h604l-31 -193h-127l-219 -1458h-207l219 1458h-123l-219 -1458h-209l119 782q-82 9 -149.5 39.5t-117.5 82.5t-71 131.5t-6 178.5z" />
<glyph unicode="&#xb7;" horiz-adv-x="559" d="M104 584l52 325h333l-49 -325h-336z" />
<glyph unicode="&#xb8;" horiz-adv-x="591" d="M-94 -385l61 111q75 -52 154 -52q44 0 72.5 16t33.5 42q5 42 -32 62t-132 20q-15 0 -18 3.5t4 18.5l101 174h145l-62 -119q57 -1 97.5 -16t61 -39t28.5 -51.5t4 -56.5q-10 -75 -91.5 -122.5t-185.5 -47.5q-157 0 -241 57z" />
<glyph unicode="&#xb9;" horiz-adv-x="638" d="M141 1456l19 119q215 0 256 135h139l-139 -932h-219l102 678h-158z" />
<glyph unicode="&#xba;" horiz-adv-x="751" d="M150 1155q23 154 125 250t239 96q139 0 213.5 -97.5t52.5 -248.5q-22 -150 -123.5 -245t-240.5 -95q-140 0 -213 95t-53 245zM358 1159q-29 -198 78 -198q109 0 135 198q29 199 -77 199q-109 0 -136 -199z" />
<glyph unicode="&#xbb;" horiz-adv-x="1052" d="M61 127l203 387l-84 404h182l164 -404l-284 -387h-181zM455 127l207 387l-87 404h183l164 -404l-285 -387h-182z" />
<glyph unicode="&#xbc;" horiz-adv-x="2037" d="M111 1243l18 119q215 0 256 135h139l-139 -932h-219l102 678h-157zM401 231l1041 1266l4 -235l-1040 -1270zM1161 193l27 174l495 565h211l-82 -559h136l-27 -180h-137l-29 -193h-207l29 193h-416zM1386 373h220l45 301z" />
<glyph unicode="&#xbd;" horiz-adv-x="1968" d="M111 1243l18 119q215 0 256 135h139l-139 -932h-219l102 678h-157zM401 231l1041 1266l4 -235l-1040 -1270zM1153 0l25 154q10 67 44.5 121.5t81.5 90.5t102.5 66t110 53.5t100 47t76.5 54t36 66.5q8 50 -21.5 81.5t-85.5 31.5q-63 0 -111.5 -38t-72.5 -114h-207 q23 145 132.5 237.5t289.5 92.5q161 0 242.5 -79t62.5 -210q-10 -67 -44 -120t-80 -86.5t-99.5 -60.5t-105.5 -48t-96 -42t-73.5 -49t-34.5 -63l-2 -4h459l-29 -182h-700z" />
<glyph unicode="&#xbe;" horiz-adv-x="2228" d="M98 868h207q3 -137 135 -137q76 0 124.5 32t56.5 83q7 49 -29.5 79.5t-104.5 32.5l-88 5l25 172l80 6q66 3 108.5 32t49.5 78q7 46 -31 72.5t-101 26.5q-141 0 -172 -140h-206q22 150 134.5 228t274.5 78q168 0 259.5 -63t72.5 -191q-19 -145 -193 -203q74 -21 118.5 -76 t31.5 -143q-21 -136 -143.5 -208.5t-292.5 -72.5q-176 0 -257 81t-59 228zM592 231l1040 1266l4 -235l-1040 -1270zM1352 193l26 174l496 565h211l-82 -559h135l-27 -180h-137l-28 -193h-207l28 193h-415zM1577 373h219l45 301z" />
<glyph unicode="&#xbf;" horiz-adv-x="1128" d="M-4 -2q9 67 37.5 122t67.5 92.5t84.5 71t90.5 63.5t83 61.5t65.5 74t34.5 92.5h276q-11 -76 -43 -141t-73 -107.5t-88 -84t-86.5 -73t-69 -71.5t-35.5 -82q-7 -55 33.5 -90t107.5 -35q75 0 147 49.5t113 131.5l283 -66q-88 -173 -236.5 -264.5t-343.5 -91.5 q-239 0 -354 99t-94 249zM428 702l51 357h371l-49 -357h-373z" />
<glyph unicode="&#xc0;" horiz-adv-x="1464" d="M-39 0l741 1481h357l295 -1481h-342l-60 315h-489l-156 -315h-346zM584 616h334l-87 531zM610 1708l111 217l485 -213l-69 -143z" />
<glyph unicode="&#xc1;" horiz-adv-x="1464" d="M-39 0l741 1481h357l295 -1481h-342l-60 315h-489l-156 -315h-346zM584 616h334l-87 531zM623 1712l548 213l43 -217l-567 -139z" />
<glyph unicode="&#xc2;" horiz-adv-x="1464" d="M-39 0l741 1481h357l295 -1481h-342l-60 315h-489l-156 -315h-346zM455 1626l315 293h236l221 -293h-256l-105 160l-168 -160h-243zM584 616h334l-87 531z" />
<glyph unicode="&#xc3;" horiz-adv-x="1464" d="M-39 0l741 1481h357l295 -1481h-342l-60 315h-489l-156 -315h-346zM567 1810q54 49 105.5 75t118.5 26q63 0 161.5 -32t141.5 -32q88 0 190 76l10 -186q-43 -33 -104 -55.5t-125 -22.5q-59 0 -150 29.5t-143 29.5q-51 0 -88.5 -15.5t-89.5 -53.5zM584 616h334l-87 531z " />
<glyph unicode="&#xc4;" horiz-adv-x="1464" d="M-39 0l741 1481h357l295 -1481h-342l-60 315h-489l-156 -315h-346zM485 1624l47 301h349l-45 -301h-351zM584 616h334l-87 531zM961 1624l45 301h350l-45 -301h-350z" />
<glyph unicode="&#xc5;" horiz-adv-x="1464" d="M-39 0l741 1481h357l295 -1481h-342l-60 315h-489l-156 -315h-346zM584 616h334l-87 531zM707 1806q12 92 87.5 157t168.5 65q94 0 149.5 -66t40.5 -160q-12 -95 -88 -161t-170 -66t-148.5 67t-39.5 164zM827 1800q-6 -39 19.5 -69.5t66.5 -30.5q39 0 72 30.5t39 69.5 q6 43 -17.5 70.5t-64.5 27.5t-75 -28t-40 -70z" />
<glyph unicode="&#xc6;" horiz-adv-x="2179" d="M-74 0l987 1481h1274l-45 -287h-686l-45 -307h447l-43 -283h-447l-45 -315h705l-43 -289h-1100l47 315h-457l-203 -315h-346zM649 616h326l96 641z" />
<glyph unicode="&#xc7;" horiz-adv-x="1486" d="M133 756q51 343 264 544t525 201q253 0 400 -145t136 -375l-362 -2q-2 112 -60 176t-170 64q-287 0 -356 -467q-37 -251 21.5 -370.5t195.5 -119.5q103 0 183.5 74.5t117.5 189.5l361 -4q-25 -88 -58 -160t-85 -141t-117.5 -117.5t-157.5 -81t-203 -40.5l-47 -91 q57 -1 97.5 -16t61 -39t28 -51.5t3.5 -56.5q-10 -76 -91 -123t-185 -47q-158 0 -242 57l62 111q75 -52 153 -52q44 0 73 16t34 42q5 42 -32 62t-132 20q-15 0 -18 3.5t4 18.5l84 148q-272 28 -404 239t-84 533z" />
<glyph unicode="&#xc8;" horiz-adv-x="1329" d="M80 0l223 1481h1038l-45 -291h-690l-43 -303h586l-43 -285h-588l-47 -309h698l-45 -293h-1044zM528 1708l111 217l485 -213l-69 -143z" />
<glyph unicode="&#xc9;" horiz-adv-x="1329" d="M80 0l223 1481h1038l-45 -291h-690l-43 -303h586l-43 -285h-588l-47 -309h698l-45 -293h-1044zM543 1712l549 213l43 -217l-568 -139z" />
<glyph unicode="&#xca;" horiz-adv-x="1329" d="M80 0l223 1481h1038l-45 -291h-690l-43 -303h586l-43 -285h-588l-47 -309h698l-45 -293h-1044zM432 1626l318 293h235l219 -293h-256l-102 160l-170 -160h-244z" />
<glyph unicode="&#xcb;" horiz-adv-x="1329" d="M80 0l223 1481h1038l-45 -291h-690l-43 -303h586l-43 -285h-588l-47 -309h698l-45 -293h-1044zM406 1624l47 301h348l-45 -301h-350zM881 1624l45 301h350l-45 -301h-350z" />
<glyph unicode="&#xcc;" d="M80 0l221 1481h348l-221 -1481h-348zM205 1708l110 217l486 -213l-70 -143z" />
<glyph unicode="&#xcd;" d="M80 0l221 1481h348l-221 -1481h-348zM219 1712l549 213l43 -217l-567 -139z" />
<glyph unicode="&#xce;" d="M80 0l221 1481h348l-221 -1481h-348zM109 1626l317 293h236l219 -293h-256l-103 160l-170 -160h-243z" />
<glyph unicode="&#xcf;" d="M80 0l221 1481h348l-221 -1481h-348zM82 1624l47 301h348l-45 -301h-350zM557 1624l45 301h350l-45 -301h-350z" />
<glyph unicode="&#xd0;" horiz-adv-x="1617" d="M84 604l35 250h221l94 627q418 0 481 -2q381 -12 538 -205t106 -529q-26 -169 -92.5 -304t-173.5 -234.5t-260.5 -153t-344.5 -53.5h-475l90 604h-219zM602 279h137q61 0 118.5 15.5t113.5 51t100.5 89t78 134t48.5 181.5q34 227 -51 340.5t-266 113.5h-142l-51 -350h270 l-34 -250h-273z" />
<glyph unicode="&#xd1;" horiz-adv-x="1628" d="M80 0l223 1481h346l479 -903l134 903h348l-224 -1481h-313l-504 950l-141 -950h-348zM641 1810q54 49 105 75t118 26q63 0 161.5 -32t141.5 -32q89 0 191 76l10 -186q-43 -33 -104 -55.5t-125 -22.5q-59 0 -150 29.5t-143 29.5q-51 0 -88.5 -15.5t-89.5 -53.5z" />
<glyph unicode="&#xd2;" horiz-adv-x="1574" d="M129 737q52 350 271.5 557t531.5 207q313 0 469 -206.5t104 -557.5q-52 -348 -268.5 -552.5t-531.5 -204.5q-318 0 -473 203.5t-103 553.5zM506 731q-37 -244 29.5 -356.5t212.5 -112.5t244.5 112.5t133.5 356.5q38 252 -26 370t-209 118q-147 0 -247.5 -118t-137.5 -370 zM641 1708l111 217l485 -213l-70 -143z" />
<glyph unicode="&#xd3;" horiz-adv-x="1574" d="M129 737q52 350 271.5 557t531.5 207q313 0 469 -206.5t104 -557.5q-52 -348 -268.5 -552.5t-531.5 -204.5q-318 0 -473 203.5t-103 553.5zM506 731q-37 -244 29.5 -356.5t212.5 -112.5t244.5 112.5t133.5 356.5q38 252 -26 370t-209 118q-147 0 -247.5 -118t-137.5 -370 zM655 1712l549 213l43 -217l-567 -139z" />
<glyph unicode="&#xd4;" horiz-adv-x="1574" d="M129 737q52 350 271.5 557t531.5 207q313 0 469 -206.5t104 -557.5q-52 -348 -268.5 -552.5t-531.5 -204.5q-318 0 -473 203.5t-103 553.5zM506 731q-37 -244 29.5 -356.5t212.5 -112.5t244.5 112.5t133.5 356.5q38 252 -26 370t-209 118q-147 0 -247.5 -118t-137.5 -370 zM545 1626l317 293h236l219 -293h-256l-103 160l-170 -160h-243z" />
<glyph unicode="&#xd5;" horiz-adv-x="1574" d="M129 737q52 350 271.5 557t531.5 207q313 0 469 -206.5t104 -557.5q-52 -348 -268.5 -552.5t-531.5 -204.5q-318 0 -473 203.5t-103 553.5zM506 731q-37 -244 29.5 -356.5t212.5 -112.5t244.5 112.5t133.5 356.5q38 252 -26 370t-209 118q-147 0 -247.5 -118t-137.5 -370 zM600 1810q54 49 105 75t118 26q63 0 161.5 -32t141.5 -32q89 0 191 76l10 -186q-43 -33 -104 -55.5t-125 -22.5q-59 0 -150 29.5t-143 29.5q-51 0 -88.5 -15.5t-89.5 -53.5z" />
<glyph unicode="&#xd6;" horiz-adv-x="1574" d="M129 737q52 350 271.5 557t531.5 207q313 0 469 -206.5t104 -557.5q-52 -348 -268.5 -552.5t-531.5 -204.5q-318 0 -473 203.5t-103 553.5zM506 731q-37 -244 29.5 -356.5t212.5 -112.5t244.5 112.5t133.5 356.5q38 252 -26 370t-209 118q-147 0 -247.5 -118t-137.5 -370 zM518 1624l47 301h348l-45 -301h-350zM993 1624l45 301h351l-46 -301h-350z" />
<glyph unicode="&#xd7;" horiz-adv-x="1204" d="M102 434l353 311l-260 314l200 178l262 -313l357 313l147 -178l-356 -314l260 -311l-203 -178l-260 311l-354 -311z" />
<glyph unicode="&#xd8;" horiz-adv-x="1597" d="M-20 123l190 168q-79 184 -39 446q52 350 271 557t532 207q272 0 426 -160l190 166l119 -147l-203 -182q78 -182 41 -441q-52 -348 -268.5 -552.5t-531.5 -204.5q-267 0 -424 151l-183 -160zM537 604l548 500q-45 125 -190 125q-118 0 -194 -83t-119 -259 q-36 -136 -45 -283zM553 365q52 -109 197 -109q109 0 182 70.5t115 222.5q38 128 53 315z" />
<glyph unicode="&#xd9;" horiz-adv-x="1503" d="M158 340.5q-18 113.5 6 253.5l133 887h350l-135 -908q-24 -152 35.5 -226.5t175.5 -74.5q113 0 195 74.5t106 226.5l135 908h350l-133 -893q-21 -142 -70 -250.5t-131.5 -190.5t-207.5 -124.5t-289 -42.5q-165 0 -277.5 43.5t-168.5 123.5t-74 193.5zM631 1708l110 217 l486 -213l-70 -143z" />
<glyph unicode="&#xda;" horiz-adv-x="1503" d="M158 340.5q-18 113.5 6 253.5l133 887h350l-135 -908q-24 -152 35.5 -226.5t175.5 -74.5q113 0 195 74.5t106 226.5l135 908h350l-133 -893q-21 -142 -70 -250.5t-131.5 -190.5t-207.5 -124.5t-289 -42.5q-165 0 -277.5 43.5t-168.5 123.5t-74 193.5zM645 1712l549 213 l43 -217l-567 -139z" />
<glyph unicode="&#xdb;" horiz-adv-x="1503" d="M158 340.5q-18 113.5 6 253.5l133 887h350l-135 -908q-24 -152 35.5 -226.5t175.5 -74.5q113 0 195 74.5t106 226.5l135 908h350l-133 -893q-21 -142 -70 -250.5t-131.5 -190.5t-207.5 -124.5t-289 -42.5q-165 0 -277.5 43.5t-168.5 123.5t-74 193.5zM535 1626l317 293 h235l220 -293h-256l-103 160l-170 -160h-243z" />
<glyph unicode="&#xdc;" horiz-adv-x="1503" d="M158 340.5q-18 113.5 6 253.5l133 887h350l-135 -908q-24 -152 35.5 -226.5t175.5 -74.5q113 0 195 74.5t106 226.5l135 908h350l-133 -893q-21 -142 -70 -250.5t-131.5 -190.5t-207.5 -124.5t-289 -42.5q-165 0 -277.5 43.5t-168.5 123.5t-74 193.5zM508 1624l47 301 h348l-45 -301h-350zM983 1624l45 301h350l-45 -301h-350z" />
<glyph unicode="&#xdd;" horiz-adv-x="1390" d="M145 1481h373l225 -563l392 563h376l-641 -860l-92 -621h-346l92 621zM553 1712l549 213l43 -217l-567 -139z" />
<glyph unicode="&#xde;" horiz-adv-x="1480" d="M80 0l223 1481h393l-39 -275h279q121 0 221 -28.5t171.5 -84t103.5 -143.5t16 -200q-32 -213 -196 -334t-406 -121h-326l-45 -295h-395zM561 578h270q86 0 146 49t72 127q12 81 -38.5 125.5t-140.5 44.5h-256z" />
<glyph unicode="&#xdf;" horiz-adv-x="1282" d="M96 0l107 762h-107l33 239h107q16 97 54.5 179t103.5 151.5t169 109.5t236 40q196 0 291 -82t73 -232q-13 -103 -82.5 -172t-212.5 -131q-34 -16 -39 -35q0 -12 6.5 -19t24.5 -13q140 -72 194 -114q132 -103 135 -259q0 -34 -5 -72q-24 -179 -148.5 -275.5t-314.5 -96.5 q-152 0 -240 67l121 211q20 -18 35.5 -28.5t44 -20.5t61.5 -10q59 0 101 29.5t51 86.5q7 52 -25 81t-116 69q-191 96 -166 278q20 130 141 228q8 7 32 27t33 28t26.5 26t25 30.5t15 30.5t9.5 36q8 48 -22 79.5t-92 31.5q-80 0 -131.5 -52t-63.5 -139l-149 -1069h-316z" />
<glyph unicode="&#xe0;" horiz-adv-x="1146" d="M29 309q55 361 598 361l104 2l6 53q9 63 -22.5 95t-100.5 30q-59 -2 -113.5 -29t-84.5 -84h-283q34 168 179.5 255t353.5 87q243 0 336.5 -86.5t70.5 -244.5l-112 -748h-287l-4 174q-65 -108 -144 -151t-190 -43q-75 0 -136.5 22t-103.5 62.5t-60 103.5t-7 141zM360 346 q-9 -65 28 -103t99 -38q69 0 127.5 45.5t67.5 105.5l23 144h-84q-56 0 -109 -13t-99 -49.5t-53 -91.5zM391 1286l111 217l485 -213l-69 -143z" />
<glyph unicode="&#xe1;" horiz-adv-x="1146" d="M29 309q55 361 598 361l104 2l6 53q9 63 -22.5 95t-100.5 30q-59 -2 -113.5 -29t-84.5 -84h-283q34 168 179.5 255t353.5 87q243 0 336.5 -86.5t70.5 -244.5l-112 -748h-287l-4 174q-65 -108 -144 -151t-190 -43q-75 0 -136.5 22t-103.5 62.5t-60 103.5t-7 141zM360 346 q-9 -65 28 -103t99 -38q69 0 127.5 45.5t67.5 105.5l23 144h-84q-56 0 -109 -13t-99 -49.5t-53 -91.5zM403 1290l549 213l43 -217l-567 -139z" />
<glyph unicode="&#xe2;" horiz-adv-x="1146" d="M29 309q55 361 598 361l104 2l6 53q9 63 -22.5 95t-100.5 30q-59 -2 -113.5 -29t-84.5 -84h-283q34 168 179.5 255t353.5 87q243 0 336.5 -86.5t70.5 -244.5l-112 -748h-287l-4 174q-65 -108 -144 -151t-190 -43q-75 0 -136.5 22t-103.5 62.5t-60 103.5t-7 141zM293 1204 l317 293h236l219 -293h-256l-102 160l-170 -160h-244zM360 346q-9 -65 28 -103t99 -38q69 0 127.5 45.5t67.5 105.5l23 144h-84q-56 0 -109 -13t-99 -49.5t-53 -91.5z" />
<glyph unicode="&#xe3;" horiz-adv-x="1146" d="M29 309q55 361 598 361l104 2l6 53q9 63 -22.5 95t-100.5 30q-59 -2 -113.5 -29t-84.5 -84h-283q34 168 179.5 255t353.5 87q243 0 336.5 -86.5t70.5 -244.5l-112 -748h-287l-4 174q-65 -108 -144 -151t-190 -43q-75 0 -136.5 22t-103.5 62.5t-60 103.5t-7 141zM348 1389 q54 48 105 74t118 26q63 0 161.5 -32t141.5 -32q89 0 191 76l10 -186q-43 -33 -104 -55.5t-125 -22.5q-59 0 -150 29.5t-143 29.5q-51 0 -88.5 -15.5t-89.5 -53.5zM360 346q-9 -65 28 -103t99 -38q69 0 127.5 45.5t67.5 105.5l23 144h-84q-56 0 -109 -13t-99 -49.5 t-53 -91.5z" />
<glyph unicode="&#xe4;" horiz-adv-x="1146" d="M29 309q55 361 598 361l104 2l6 53q9 63 -22.5 95t-100.5 30q-59 -2 -113.5 -29t-84.5 -84h-283q34 168 179.5 255t353.5 87q243 0 336.5 -86.5t70.5 -244.5l-112 -748h-287l-4 174q-65 -108 -144 -151t-190 -43q-75 0 -136.5 22t-103.5 62.5t-60 103.5t-7 141zM266 1202 l47 301h349l-46 -301h-350zM360 346q-9 -65 28 -103t99 -38q69 0 127.5 45.5t67.5 105.5l23 144h-84q-56 0 -109 -13t-99 -49.5t-53 -91.5zM741 1202l45 301h351l-45 -301h-351z" />
<glyph unicode="&#xe5;" horiz-adv-x="1146" d="M29 309q55 361 598 361l104 2l6 53q9 63 -22.5 95t-100.5 30q-59 -2 -113.5 -29t-84.5 -84h-283q34 168 179.5 255t353.5 87q243 0 336.5 -86.5t70.5 -244.5l-112 -748h-287l-4 174q-65 -108 -144 -151t-190 -43q-75 0 -136.5 22t-103.5 62.5t-60 103.5t-7 141zM360 346 q-9 -65 28 -103t99 -38q69 0 127.5 45.5t67.5 105.5l23 144h-84q-56 0 -109 -13t-99 -49.5t-53 -91.5zM487 1384q12 92 87.5 157t168.5 65q94 0 150 -66t41 -160q-12 -95 -88 -161t-170 -66t-149 67t-40 164zM608 1378q-6 -39 19.5 -69.5t66.5 -30.5q39 0 72 30.5t39 69.5 q6 43 -17.5 71t-64.5 28t-75 -28.5t-40 -70.5z" />
<glyph unicode="&#xe6;" horiz-adv-x="1832" d="M27 283q24 163 178 260t428 110l108 9l9 63q19 139 -121 139q-133 0 -213 -133l-287 64q55 96 123 156.5t172 94t248 33.5q254 -3 344 -104q147 104 317 104q231 0 351.5 -164t78.5 -450h-700q-17 -114 38.5 -182t153.5 -68q68 0 130 32.5t139 104.5l198 -90 q-124 -157 -249 -219.5t-297 -62.5q-126 0 -223 47.5t-160 126.5q-6 9 -19 0q-100 -88 -208.5 -131t-246.5 -43q-161 0 -237 82.5t-55 220.5zM369 305q-8 -54 23 -85t97 -30q73 2 132.5 40t68.5 96l23 157l-84 -6q-93 -7 -171.5 -52t-88.5 -120zM1098 653l356 -2 q7 48 -3 95.5t-44.5 84.5t-89.5 37q-80 0 -143 -56.5t-76 -158.5z" />
<glyph unicode="&#xe7;" horiz-adv-x="1083" d="M61 524q37 245 204 400t392 155q135 0 227.5 -59t130.5 -155t25 -216h-284q0 31 -6.5 59t-20.5 54t-41.5 41.5t-64.5 15.5q-92 0 -156.5 -76t-85.5 -215q-21 -140 23 -222.5t135 -82.5q70 0 117 53t65 113h276q-28 -157 -146 -270.5t-288 -134.5l-47 -93q57 -1 97.5 -16 t61 -39t28.5 -51.5t4 -56.5q-10 -75 -91.5 -122.5t-185.5 -47.5q-158 0 -242 57l62 111q75 -52 153 -52q44 0 73 16t34 42q5 42 -32 62t-132 20q-15 0 -18 3.5t4 18.5l86 150q-190 27 -290 173.5t-67 364.5z" />
<glyph unicode="&#xe8;" horiz-adv-x="1138" d="M59 516q23 157 102 283.5t209.5 203t288.5 76.5q240 0 347 -149t71 -393l-14 -88h-674q-18 -105 23.5 -163.5t126.5 -58.5q139 0 202 121h310q-35 -112 -121.5 -197t-196 -128t-223.5 -43q-239 0 -363.5 146.5t-87.5 389.5zM385 1286l111 217l485 -213l-70 -143zM416 649 h358q11 83 -27.5 137t-123.5 54q-77 0 -135.5 -57t-71.5 -134z" />
<glyph unicode="&#xe9;" horiz-adv-x="1138" d="M59 516q23 157 102 283.5t209.5 203t288.5 76.5q240 0 347 -149t71 -393l-14 -88h-674q-18 -105 23.5 -163.5t126.5 -58.5q139 0 202 121h310q-35 -112 -121.5 -197t-196 -128t-223.5 -43q-239 0 -363.5 146.5t-87.5 389.5zM399 1290l549 213l43 -217l-567 -139zM416 649 h358q11 83 -27.5 137t-123.5 54q-77 0 -135.5 -57t-71.5 -134z" />
<glyph unicode="&#xea;" horiz-adv-x="1138" d="M59 516q23 157 102 283.5t209.5 203t288.5 76.5q240 0 347 -149t71 -393l-14 -88h-674q-18 -105 23.5 -163.5t126.5 -58.5q139 0 202 121h310q-35 -112 -121.5 -197t-196 -128t-223.5 -43q-239 0 -363.5 146.5t-87.5 389.5zM289 1204l317 293h236l219 -293h-256l-103 160 l-170 -160h-243zM416 649h358q11 83 -27.5 137t-123.5 54q-77 0 -135.5 -57t-71.5 -134z" />
<glyph unicode="&#xeb;" horiz-adv-x="1138" d="M59 516q23 157 102 283.5t209.5 203t288.5 76.5q240 0 347 -149t71 -393l-14 -88h-674q-18 -105 23.5 -163.5t126.5 -58.5q139 0 202 121h310q-35 -112 -121.5 -197t-196 -128t-223.5 -43q-239 0 -363.5 146.5t-87.5 389.5zM262 1202l47 301h348l-45 -301h-350zM416 649 h358q11 83 -27.5 137t-123.5 54q-77 0 -135.5 -57t-71.5 -134zM737 1202l45 301h351l-46 -301h-350z" />
<glyph unicode="&#xec;" horiz-adv-x="587" d="M45 0l160 1059h346l-160 -1059h-346zM111 1286l110 217l486 -213l-70 -143z" />
<glyph unicode="&#xed;" horiz-adv-x="587" d="M45 0l160 1059h346l-160 -1059h-346zM125 1290l549 213l43 -217l-567 -139z" />
<glyph unicode="&#xee;" horiz-adv-x="587" d="M14 1204l318 293h235l219 -293h-256l-102 160l-170 -160h-244zM45 0l160 1059h346l-160 -1059h-346z" />
<glyph unicode="&#xef;" horiz-adv-x="587" d="M-12 1202l47 301h348l-45 -301h-350zM45 0l160 1059h346l-160 -1059h-346zM463 1202l45 301h350l-45 -301h-350z" />
<glyph unicode="&#xf0;" horiz-adv-x="1196" d="M57 504q22 154 111 276.5t221.5 190t282.5 67.5q39 0 51 -12q-43 92 -133 170l-258 -135l-47 102l202 103q-77 46 -182 86l205 151q146 -41 246 -96l194 102l41 -104l-131 -70q170 -135 242 -338t37 -442q-40 -263 -211.5 -419t-415.5 -156q-235 0 -362 148.5t-93 375.5z M408 512q-23 -148 14 -226.5t127 -78.5q186 0 231 305q23 150 -12.5 227.5t-128.5 77.5q-90 0 -149.5 -78.5t-81.5 -226.5z" />
<glyph unicode="&#xf1;" horiz-adv-x="1226" d="M43 0l160 1059h340l-19 -131q47 46 78.5 70t93.5 45.5t140 21.5q69 0 131 -26.5t106 -72t64.5 -112.5t9.5 -143l-109 -711h-346l101 666q9 59 -29 95t-96 36q-63 0 -116 -33.5t-60 -89.5l-103 -674h-346zM389 1389q54 48 105 74t118 26q63 0 161.5 -32t141.5 -32 q89 0 191 76l10 -186q-43 -33 -104 -55.5t-125 -22.5q-59 0 -150 29.5t-143 29.5q-51 0 -88.5 -15.5t-89.5 -53.5z" />
<glyph unicode="&#xf2;" horiz-adv-x="1157" d="M61 522q37 248 204.5 402.5t398.5 154.5q235 0 351 -155.5t79 -401.5q-36 -239 -199.5 -390.5t-398.5 -151.5t-353 150.5t-82 391.5zM387 1286l111 217l485 -213l-70 -143zM392 429.5q3 -53.5 15 -96.5t45.5 -70t84.5 -27q50 0 91 26.5t66.5 71.5t41 95t22.5 106 q11 53 9 105t-14 93.5t-44.5 67.5t-83.5 26t-92 -25t-67.5 -68.5t-42.5 -92.5t-24 -106q-10 -52 -7 -105.5z" />
<glyph unicode="&#xf3;" horiz-adv-x="1157" d="M61 522q37 248 204.5 402.5t398.5 154.5q235 0 351 -155.5t79 -401.5q-36 -239 -199.5 -390.5t-398.5 -151.5t-353 150.5t-82 391.5zM392 429.5q3 -53.5 15 -96.5t45.5 -70t84.5 -27q50 0 91 26.5t66.5 71.5t41 95t22.5 106q11 53 9 105t-14 93.5t-44.5 67.5t-83.5 26 t-92 -25t-67.5 -68.5t-42.5 -92.5t-24 -106q-10 -52 -7 -105.5zM401 1290l549 213l43 -217l-567 -139z" />
<glyph unicode="&#xf4;" horiz-adv-x="1157" d="M61 522q37 248 204.5 402.5t398.5 154.5q235 0 351 -155.5t79 -401.5q-36 -239 -199.5 -390.5t-398.5 -151.5t-353 150.5t-82 391.5zM291 1204l317 293h236l219 -293h-256l-102 160l-170 -160h-244zM392 429.5q3 -53.5 15 -96.5t45.5 -70t84.5 -27q50 0 91 26.5 t66.5 71.5t41 95t22.5 106q11 53 9 105t-14 93.5t-44.5 67.5t-83.5 26t-92 -25t-67.5 -68.5t-42.5 -92.5t-24 -106q-10 -52 -7 -105.5z" />
<glyph unicode="&#xf5;" horiz-adv-x="1157" d="M61 522q37 248 204.5 402.5t398.5 154.5q235 0 351 -155.5t79 -401.5q-36 -239 -199.5 -390.5t-398.5 -151.5t-353 150.5t-82 391.5zM344 1389q54 48 105 74t118 26q63 0 161.5 -32t141.5 -32q89 0 191 76l10 -186q-43 -33 -104 -55.5t-125 -22.5q-59 0 -150 29.5 t-143 29.5q-51 0 -88.5 -15.5t-89.5 -53.5zM392 429.5q3 -53.5 15 -96.5t45.5 -70t84.5 -27q50 0 91 26.5t66.5 71.5t41 95t22.5 106q11 53 9 105t-14 93.5t-44.5 67.5t-83.5 26t-92 -25t-67.5 -68.5t-42.5 -92.5t-24 -106q-10 -52 -7 -105.5z" />
<glyph unicode="&#xf6;" horiz-adv-x="1157" d="M61 522q37 248 204.5 402.5t398.5 154.5q235 0 351 -155.5t79 -401.5q-36 -239 -199.5 -390.5t-398.5 -151.5t-353 150.5t-82 391.5zM264 1202l47 301h348l-45 -301h-350zM392 429.5q3 -53.5 15 -96.5t45.5 -70t84.5 -27q50 0 91 26.5t66.5 71.5t41 95t22.5 106 q11 53 9 105t-14 93.5t-44.5 67.5t-83.5 26t-92 -25t-67.5 -68.5t-42.5 -92.5t-24 -106q-10 -52 -7 -105.5zM739 1202l45 301h351l-45 -301h-351z" />
<glyph unicode="&#xf7;" horiz-adv-x="1222" d="M129 621l37 249h989l-37 -249h-989zM385 156l49 333h342l-51 -333h-340zM512 1001l49 334h342l-49 -334h-342z" />
<glyph unicode="&#xf8;" horiz-adv-x="1189" d="M-4 98l106 101q-66 135 -39 323q38 248 206 402.5t397 154.5q169 0 282 -86l86 80l109 -117l-90 -86q76 -142 45 -348q-37 -240 -200.5 -391t-399.5 -151q-179 0 -297 94l-97 -90zM397 475l330 311q-33 41 -98 41q-52 0 -93 -25t-67 -68.5t-42 -92.5t-24 -106zM430 289 q37 -53 111 -53q50 0 90.5 26.5t66 71.5t41 94.5t23.5 106.5q4 25 8 71z" />
<glyph unicode="&#xf9;" horiz-adv-x="1222" d="M86 319l111 740h346l-105 -692q-9 -65 26 -101.5t101 -36.5q69 0 116.5 38t57.5 102l103 690h348l-164 -1059h-258l-8 213q-20 -57 -52 -100t-66.5 -67.5t-76 -40t-75.5 -20.5t-70 -5q-66 0 -129 22t-114.5 63t-77.5 107.5t-13 146.5zM420 1286l110 217l486 -213 l-70 -143z" />
<glyph unicode="&#xfa;" horiz-adv-x="1222" d="M86 319l111 740h346l-105 -692q-9 -65 26 -101.5t101 -36.5q69 0 116.5 38t57.5 102l103 690h348l-164 -1059h-258l-8 213q-20 -57 -52 -100t-66.5 -67.5t-76 -40t-75.5 -20.5t-70 -5q-66 0 -129 22t-114.5 63t-77.5 107.5t-13 146.5zM434 1290l549 213l43 -217 l-567 -139z" />
<glyph unicode="&#xfb;" horiz-adv-x="1222" d="M86 319l111 740h346l-105 -692q-9 -65 26 -101.5t101 -36.5q69 0 116.5 38t57.5 102l103 690h348l-164 -1059h-258l-8 213q-20 -57 -52 -100t-66.5 -67.5t-76 -40t-75.5 -20.5t-70 -5q-66 0 -129 22t-114.5 63t-77.5 107.5t-13 146.5zM324 1204l317 293h236l219 -293 h-256l-103 160l-170 -160h-243z" />
<glyph unicode="&#xfc;" horiz-adv-x="1222" d="M86 319l111 740h346l-105 -692q-9 -65 26 -101.5t101 -36.5q69 0 116.5 38t57.5 102l103 690h348l-164 -1059h-258l-8 213q-20 -57 -52 -100t-66.5 -67.5t-76 -40t-75.5 -20.5t-70 -5q-66 0 -129 22t-114.5 63t-77.5 107.5t-13 146.5zM297 1202l47 301h348l-45 -301h-350 zM772 1202l45 301h350l-45 -301h-350z" />
<glyph unicode="&#xfd;" horiz-adv-x="1165" d="M-35 -297l33 221l102 -6q54 -3 96 4t64 17t39.5 28.5t21 25.5t9.5 21l18 39l-254 1006h340l127 -633l322 633h338l-568 -1030q-62 -111 -122 -184.5t-120 -113t-116 -54.5t-125 -15q-68 0 -119 10t-69 20zM440 1290l549 213l43 -217l-567 -139z" />
<glyph unicode="&#xfe;" horiz-adv-x="1234" d="M-4 -330l270 1811h348l-82 -551q77 71 154 110t178 39q85 0 150.5 -32.5t109.5 -99.5t57.5 -169.5t-5.5 -242.5q-41 -280 -174.5 -417.5t-317.5 -137.5q-151 0 -242 102q-20 21 -27.5 19t-11.5 -29l-61 -402h-346zM436 287q55 -92 148 -92t154 80.5t89 269.5 q21 120 6 191t-50.5 99.5t-96.5 28.5q-69 0 -123 -42t-63 -97z" />
<glyph unicode="&#xff;" horiz-adv-x="1165" d="M-35 -297l33 221l102 -6q54 -3 96 4t64 17t39.5 28.5t21 25.5t9.5 21l18 39l-254 1006h340l127 -633l322 633h338l-568 -1030q-62 -111 -122 -184.5t-120 -113t-116 -54.5t-125 -15q-68 0 -119 10t-69 20zM303 1202l47 301h348l-45 -301h-350zM778 1202l45 301h351 l-46 -301h-350z" />
<glyph unicode="&#x152;" horiz-adv-x="2283" d="M129 737q53 353 278 558.5t566 205.5q183 0 278 -65l111 45h928l-45 -287h-693l-45 -307h451l-43 -283h-451l-47 -315h715l-45 -289h-967l-78 43q-123 -63 -317 -63q-332 0 -491 203t-105 554zM541 731q-38 -255 9 -365t195 -110q146 0 226.5 110t118.5 365 q40 262 -8 380t-191 118q-145 0 -228.5 -118t-121.5 -380z" />
<glyph unicode="&#x153;" horiz-adv-x="1892" d="M61 522q24 164 114 291.5t222.5 196.5t284.5 69q203 0 324 -127q12 -10 21 -10t24 10q149 127 344 127q232 0 351 -164.5t77 -449.5h-701q-18 -117 38 -183.5t157 -66.5q124 0 266 137l199 -90q-125 -160 -249 -221t-298 -61q-203 0 -324 124q-17 15 -34 -2 q-160 -122 -363 -122q-236 0 -362 151.5t-91 390.5zM414 530q-52 -323 137 -323q95 0 152.5 80t82.5 243q49 328 -137 328t-235 -328zM1157 653l356 -2q8 48 -2 95.5t-45 84.5t-90 37q-81 0 -143.5 -57t-75.5 -158z" />
<glyph unicode="&#x178;" horiz-adv-x="1390" d="M145 1481h373l225 -563l392 563h376l-641 -860l-92 -621h-346l92 621zM418 1626l47 301h348l-45 -301h-350zM893 1626l45 301h350l-45 -301h-350z" />
<glyph unicode="&#x2c6;" horiz-adv-x="815" d="M115 1204l317 293h236l219 -293h-256l-103 160l-170 -160h-243z" />
<glyph unicode="&#x2dc;" horiz-adv-x="907" d="M201 1389q54 48 105 74t118 26q63 0 161.5 -32t141.5 -32q89 0 191 76l10 -186q-43 -33 -104.5 -55.5t-125.5 -22.5q-59 0 -149.5 29.5t-142.5 29.5q-51 0 -89 -15.5t-90 -53.5z" />
<glyph unicode="&#x2000;" horiz-adv-x="1014" />
<glyph unicode="&#x2001;" horiz-adv-x="2028" />
<glyph unicode="&#x2002;" horiz-adv-x="1014" />
<glyph unicode="&#x2003;" horiz-adv-x="2028" />
<glyph unicode="&#x2004;" horiz-adv-x="676" />
<glyph unicode="&#x2005;" horiz-adv-x="507" />
<glyph unicode="&#x2006;" horiz-adv-x="338" />
<glyph unicode="&#x2007;" horiz-adv-x="338" />
<glyph unicode="&#x2008;" horiz-adv-x="253" />
<glyph unicode="&#x2009;" horiz-adv-x="405" />
<glyph unicode="&#x200a;" horiz-adv-x="112" />
<glyph unicode="&#x2010;" horiz-adv-x="817" d="M98 401l35 250h567l-34 -250h-568z" />
<glyph unicode="&#x2011;" horiz-adv-x="817" d="M98 401l35 250h567l-34 -250h-568z" />
<glyph unicode="&#x2012;" horiz-adv-x="817" d="M98 401l35 250h567l-34 -250h-568z" />
<glyph unicode="&#x2013;" horiz-adv-x="1241" d="M96 383l37 248h991l-39 -248h-989z" />
<glyph unicode="&#x2014;" horiz-adv-x="1880" d="M96 383l37 248h1628l-39 -248h-1626z" />
<glyph unicode="&#x2018;" horiz-adv-x="608" d="M106 924l70 278l287 340h112l-182 -291l101 -12l-78 -315h-310z" />
<glyph unicode="&#x2019;" horiz-adv-x="552" d="M152 862l159 291l-110 12l45 316h332l-41 -279l-265 -340h-120z" />
<glyph unicode="&#x201a;" horiz-adv-x="628" d="M-18 -297l172 291l-117 12l49 318h354l-43 -283l-286 -338h-129z" />
<glyph unicode="&#x201c;" horiz-adv-x="1036" d="M162 862l39 281l264 338h121l-160 -289l109 -12l-43 -318h-330zM545 862l39 281l264 338h121l-158 -289l109 -12l-46 -318h-329z" />
<glyph unicode="&#x201d;" horiz-adv-x="1026" d="M152 862l159 291l-110 12l45 316h332l-41 -279l-265 -340h-120zM625 862l159 291l-108 12l43 316h332l-39 -279l-264 -340h-123z" />
<glyph unicode="&#x201e;" horiz-adv-x="1118" d="M-18 -297l172 291l-117 12l49 318h354l-43 -283l-286 -338h-129zM471 -297l172 291l-117 12l49 318h355l-43 -283l-287 -338h-129z" />
<glyph unicode="&#x2022;" horiz-adv-x="761" d="M117 754q0 116 82.5 199t199.5 83t200 -83t83 -199q0 -117 -83 -200t-200 -83t-199.5 83t-82.5 200z" />
<glyph unicode="&#x2026;" horiz-adv-x="1927" d="M76 0l55 362h369l-56 -362h-368zM754 0l55 362h369l-56 -362h-368zM1432 0l55 362h368l-55 -362h-368z" />
<glyph unicode="&#x202f;" horiz-adv-x="405" />
<glyph unicode="&#x2039;" horiz-adv-x="659" d="M111 514l286 404h181l-205 -404l86 -387h-180z" />
<glyph unicode="&#x203a;" horiz-adv-x="659" d="M61 127l205 387l-84 404h180l164 -404l-284 -387h-181z" />
<glyph unicode="&#x205f;" horiz-adv-x="507" />
<glyph unicode="&#x20ac;" horiz-adv-x="1370" d="M4 481l29 183h155q1 13 11 92q2 10 5 30.5t5 30.5h-154l27 182h182q92 234 273.5 368t406.5 134q151 0 268 -60.5t181 -166.5l-263 -176q-30 42 -51 65.5t-60 44.5t-85 21q-183 0 -272 -230h303l-27 -180h-328l-12 -67q-8 -65 -10 -88h325l-28 -183h-293 q38 -211 213 -211q69 0 146.5 43t125.5 99l154 -195q-99 -105 -235 -171t-279 -66q-216 0 -355 135t-169 366h-189z" />
<glyph unicode="&#x2122;" horiz-adv-x="1986" d="M70 733l28 193h748l-31 -193h-264l-109 -733h-217l109 733h-264zM842 0l137 926h319l84 -613l269 613h315l-137 -926h-217l102 688l-299 -688h-162l-92 688l-104 -688h-215z" />
<glyph unicode="&#x25fc;" horiz-adv-x="1054" d="M0 0v1055h1055v-1055h-1055z" />
</font>
</defs>
</svg>
